<?xml version="1.0" encoding="iso-8859-1"?>
<!-- Uploaded to: SVG Repo, www.svgrepo.com, Generator: SVG Repo Mixer Tools -->
<svg height="800px" width="800px" version="1.1" id="Layer_1" xmlns="http://www.w3.org/2000/svg" xmlns:xlink="http://www.w3.org/1999/xlink" 
	 viewBox="0 0 512 512" xml:space="preserve">
<path style="fill:#FF9E16;" d="M399.911,150.569h-44.945v-29.1c0-12.39-10.081-22.473-22.473-22.473H179.51
	c-12.391,0-22.473,10.082-22.473,22.473v29.1h-44.945v-29.1c0-37.174,30.244-67.418,67.418-67.418h152.983
	c37.174,0,67.418,30.244,67.418,67.418V150.569z"/>
<path style="fill:#0071CE;" d="M512,169.498c0-18.54-15.169-33.709-33.709-33.709H33.709C15.169,135.789,0,150.958,0,169.498V424.24
	c0,18.54,15.169,33.709,33.709,33.709h444.582c18.54,0,33.709-15.169,33.709-33.709V169.498z"/>
<path style="fill:#FF9E16;" d="M333.859,246.96c0,15.45-12.641,28.091-28.091,28.091h-111.24c-15.45,0-28.091-12.641-28.091-28.091
	v-43.804c0-15.45,12.641-28.091,28.091-28.091h111.24c15.45,0,28.091,12.641,28.091,28.091V246.96z"/>
<path style="fill:#FFFFFF;" d="M203.517,254.826c-9.27,0-16.855-7.585-16.855-16.855v-25.826c0-9.27,7.585-16.855,16.855-16.855
	h93.262c9.27,0,16.855,7.585,16.855,16.855v25.826c0,9.27-7.585,16.855-16.855,16.855H203.517z"/>
<path style="fill:#333E48;" d="M279.446,233.49H220.85c-4.655,0-8.427-3.772-8.427-8.427s3.772-8.427,8.427-8.427h58.595
	c4.655,0,8.427,3.772,8.427,8.427C287.873,229.717,284.101,233.49,279.446,233.49z"/>
<path style="fill:#FFFFFF;" d="M354.623,217.316l-89.277,89.278c-7.124,7.124-7.123,18.782-0.001,25.903l35.602,35.601
	c7.123,7.124,18.78,7.124,25.904,0l113.479-113.48c7.124-7.124,7.123-18.779,0-25.903l-11.4-11.399H354.623z"/>
<path style="fill:#00A8E1;" d="M354.623,217.316l24.202,24.202c7.124,7.124,18.779,7.124,25.903,0l24.202-24.202H354.623z"/>
<g>
	<path style="fill:#333E48;" d="M291.62,329.096c-2.156,0-4.314-0.822-5.96-2.467c-3.291-3.292-3.291-8.627,0-11.918l66.772-66.773
		c3.292-3.29,8.627-3.29,11.918,0c3.291,3.292,3.291,8.627,0,11.918l-66.772,66.773C295.934,328.272,293.777,329.096,291.62,329.096
		z"/>
	<path style="fill:#333E48;" d="M312.774,350.249c-2.157,0-4.314-0.822-5.96-2.469c-3.291-3.291-3.291-8.626,0.001-11.917
		l66.773-66.771c3.291-3.291,8.627-3.29,11.917,0.001c3.291,3.291,3.291,8.626-0.001,11.918l-66.773,66.771
		C317.088,349.426,314.93,350.249,312.774,350.249z"/>
</g>
<circle style="fill:#4BB6AA;" cx="140.533" cy="345.394" r="58.429"/>
<circle style="fill:#0055B8;" cx="140.533" cy="345.394" r="37.08"/>
<circle style="fill:#FFFFFF;" cx="140.533" cy="345.394" r="8.241"/>
<g>
	<path style="fill:#0055B8;" d="M0,372.741v51.498c0,18.54,15.169,33.709,33.709,33.709h51.498
		C85.207,410.891,47.059,372.741,0,372.741z"/>
	<path style="fill:#0055B8;" d="M512,372.741v51.498c0,18.54-15.169,33.709-33.709,33.709h-51.498
		C426.793,410.891,464.941,372.741,512,372.741z"/>
	<path style="fill:#0055B8;" d="M0,220.997v-51.498c0-18.54,15.169-33.709,33.709-33.709h51.498
		C85.207,182.848,47.059,220.997,0,220.997z"/>
	<path style="fill:#0055B8;" d="M512,220.997v-51.498c0-18.54-15.169-33.709-33.709-33.709h-51.498
		C426.793,182.848,464.941,220.997,512,220.997z"/>
</g>
</svg>